<svg width="300" height="300" viewBox="0 0 300 300" fill="none" xmlns="http://www.w3.org/2000/svg">
<rect width="300" height="300" fill="white"/>
<line x1="20" y1="97" x2="277" y2="97" stroke="#00C2FF" stroke-width="3" stroke-dasharray="10" />
<line x1="20" y1="149.5" x2="277" y2="149.5" stroke="#FF0000"/>
<path d="M277 193.5L272 190.613V196.387L277 193.5ZM20 194H21.0039V193H20V194ZM23.0117 194H25.0195V193H23.0117V194ZM27.0273 194H29.0352V193H27.0273V194ZM31.043 194H33.0508V193H31.043V194ZM35.0586 194H37.0664V193H35.0586V194ZM39.0742 194H41.082V193H39.0742V194ZM43.0898 194H45.0977V193H43.0898V194ZM47.1055 194H49.1133V193H47.1055V194ZM51.1211 194H53.1289V193H51.1211V194ZM55.1367 194H57.1445V193H55.1367V194ZM59.1523 194H61.1602V193H59.1523V194ZM63.168 194H65.1758V193H63.168V194ZM67.1836 194H69.1914V193H67.1836V194ZM71.1992 194H73.207V193H71.1992V194ZM75.2148 194H77.2227V193H75.2148V194ZM79.2305 194H81.2383V193H79.2305V194ZM83.2461 194H85.2539V193H83.2461V194ZM87.2617 194H89.2695V193H87.2617V194ZM91.2773 194H93.2852V193H91.2773V194ZM95.293 194H97.3008V193H95.293V194ZM99.3086 194H101.316V193H99.3086V194ZM103.324 194H105.332V193H103.324V194ZM107.34 194H109.348V193H107.34V194ZM111.355 194H113.363V193H111.355V194ZM115.371 194H117.379V193H115.371V194ZM119.387 194H121.395V193H119.387V194ZM123.402 194H125.41V193H123.402V194ZM127.418 194H129.426V193H127.418V194ZM131.434 194H133.441V193H131.434V194ZM135.449 194H137.457V193H135.449V194ZM139.465 194H141.473V193H139.465V194ZM143.48 194H145.488V193H143.48V194ZM147.496 194H149.504V193H147.496V194ZM151.512 194H153.52V193H151.512V194ZM155.527 194H157.535V193H155.527V194ZM159.543 194H161.551V193H159.543V194ZM163.559 194H165.566V193H163.559V194ZM167.574 194H169.582V193H167.574V194ZM171.59 194H173.598V193H171.59V194ZM175.605 194H177.613V193H175.605V194ZM179.621 194H181.629V193H179.621V194ZM183.637 194H185.645V193H183.637V194ZM187.652 194H189.66V193H187.652V194ZM191.668 194H193.676V193H191.668V194ZM195.684 194H197.691V193H195.684V194ZM199.699 194H201.707V193H199.699V194ZM203.715 194H205.723V193H203.715V194ZM207.73 194H209.738V193H207.73V194ZM211.746 194H213.754V193H211.746V194ZM215.762 194H217.77V193H215.762V194ZM219.777 194H221.785V193H219.777V194ZM223.793 194H225.801V193H223.793V194ZM227.809 194H229.816V193H227.809V194ZM231.824 194H233.832V193H231.824V194ZM235.84 194H237.848V193H235.84V194ZM239.855 194H241.863V193H239.855V194ZM243.871 194H245.879V193H243.871V194ZM247.887 194H249.895V193H247.887V194ZM251.902 194H253.91V193H251.902V194ZM255.918 194H257.926V193H255.918V194ZM259.934 194H261.941V193H259.934V194ZM263.949 194H265.957V193H263.949V194ZM267.965 194H269.973V193H267.965V194ZM271.98 194H273.988V193H271.98V194Z" fill="#FF0000"/>
</svg>
